{"title":"Skyfall 2012 SUBBED CAM MP3 XviD-RemixCAM","uid":7812773,"size":680680216,"categoryP":"video","categoryS":"movies","magnet":"?xt=urn:btih:969d3f88c7e962c1abba26aca25bdb82c63e51f4&amp;dn=Skyfall+2012+SUBBED+CAM+MP3+XviD-RemixCAM&amp;tr=udp%3A%2F%2Ftracker.openbittorrent.com%3A80&amp;tr=udp%3A%2F%2Fopen.demonii.com%3A1337&amp;tr=udp%3A%2F%2Ftracker.coppersurfer.tk%3A6969&amp;tr=udp%3A%2F%2Fexodus.desync.com%3A6969","seeders":1,"leechers":1,"uploader":"tykoon123","files":-1,"time":1352574623,"description":"Poster: &lt;a href=&quot;\nhttp://imgr.us/images/ovshq9n1kzeahnu70cup.jpg&quot; rel=&quot;nofollow&quot; target=&quot;_NEW&quot;&gt;\nhttp://imgr.us/images/ovshq9n1kzeahnu70cup.jpg&lt;/a&gt;\n\nInfo:\n\nFormat : AVI\nFormat/Info : Audio Video Interleave\nFile size : 640 MiB\nDuration : 2h 18mn\nOverall bit rate : 646 Kbps\nWriting application : VirtualDubMod 1.5.10.2 (build 2540/release)\nWriting library : VirtualDubMod build 2540/release\n\nVideo\nID : 0\nFormat : MPEG-4 Visual\nFormat profile : Advanced Simple@L5\nFormat settings, BVOP : 2\nFormat settings, QPel : Yes\nFormat settings, GMC : No warppoints\nFormat settings, Matrix : Default (H.263)\nMuxing mode : Packed bitstream\nCodec ID : XVID\nCodec ID/Hint : XviD\nDuration : 2h 18mn\nBit rate : 509 Kbps\nWidth : 720 pixels\nHeight : 304 pixels\nDisplay aspect ratio : 2.35:1\nFrame rate : 25.000 fps\nColor space : YUV\nChroma subsampling : 4:2:0\nBit depth : 8 bits\nScan type : Progressive\nCompression mode : Lossy\nBits/(Pixel*Frame) : 0.093\nStream size : 504 MiB (79%)\nWriting library : XviD 64\n\nAudio\nID : 1\nFormat : MPEG Audio\nFormat version : Version 1\nFormat profile : Layer 3\nCodec ID : 55\nCodec ID/Hint : MP3\nDuration : 2h 18mn\nBit rate mode : Constant\nBit rate : 128 Kbps\nChannel(s) : 2 channels\nSampling rate : 44.1 KHz\nCompression mode : Lossy\nStream size : 127 MiB (20%)\nAlignment : Split accross interleaves\nInterleave, duration : 40 ms (1.00 video frame)\nInterleave, preload duration : 500 ms\n\n\n\nRelease Notes\n\nRight here we have a better source of Skyfall,done usual stuff Cropped and filtered (including a small box BLur top left throughout) and rezied to proper AR.\nFirsty onto Video not the best but not the worst,ITS A CAM!,yes there will be a few flickery parts on the movie but theres not many.\n\nThis is Subbed throughout the video!!!!\n\nAudio is good ocasional cough or laugh nothing mayjor,Audio loss for one minute @ 1:20:21 to 1:21:37 nothing mayjor missed there either.Synced this best i could,slips in an out now and again ,again nothing major.\n\nThanks for having a look my first cam effort Take it or leave it ITS A CAM,\n\n\nScreens:\n &lt;a href=&quot;\nhttp://imgr.us/images/1rwxj0varmknqfrh9izj.png&quot; rel=&quot;nofollow&quot; target=&quot;_NEW&quot;&gt;\nhttp://imgr.us/images/1rwxj0varmknqfrh9izj.png&lt;/a&gt; &lt;a href=&quot;\nhttp://imgr.us/images/4ova9oog7tpqwlzdkezo.png&quot; rel=&quot;nofollow&quot; target=&quot;_NEW&quot;&gt;\nhttp://imgr.us/images/4ova9oog7tpqwlzdkezo.png&lt;/a&gt; &lt;a href=&quot;\nhttp://imgr.us/images/uxt0g8tcsw270ql7as2n.png&quot; rel=&quot;nofollow&quot; target=&quot;_NEW&quot;&gt;\nhttp://imgr.us/images/uxt0g8tcsw270ql7as2n.png&lt;/a&gt; &lt;a href=&quot;\nhttp://imgr.us/images/v1zezip6vbidbhlpep.png&quot; rel=&quot;nofollow&quot; target=&quot;_NEW&quot;&gt;\nhttp://imgr.us/images/v1zezip6vbidbhlpep.png&lt;/a&gt; &lt;a href=&quot;\nhttp://imgr.us/images/6dtianbqh77axz7cgnd.png&quot; rel=&quot;nofollow&quot; target=&quot;_NEW&quot;&gt;\nhttp://imgr.us/images/6dtianbqh77axz7cgnd.png&lt;/a&gt; &lt;a href=&quot;\nhttp://imgr.us/images/o1yer7qk39f90kp5umsj.png&quot; rel=&quot;nofollow&quot; target=&quot;_NEW&quot;&gt;\nhttp://imgr.us/images/o1yer7qk39f90kp5umsj.png&lt;/a&gt;","torrent":{"xt":"urn:btih:969d3f88c7e962c1abba26aca25bdb82c63e51f4","amp;dn":"Skyfall+2012+SUBBED+CAM+MP3+XviD-RemixCAM","amp;tr":["udp%3A%2F%2Ftracker.openbittorrent.com%3A80","udp%3A%2F%2Fopen.demonii.com%3A1337","udp%3A%2F%2Ftracker.coppersurfer.tk%3A6969","udp%3A%2F%2Fexodus.desync.com%3A6969"],"infoHash":"969d3f88c7e962c1abba26aca25bdb82c63e51f4","infoHashBuffer":{"type":"Buffer","data":[150,157,63,136,199,233,98,193,171,186,38,172,162,91,219,130,198,62,81,244]},"announce":[],"urlList":[]}}